<svg width="19" height="19" viewBox="0 0 19 19" fill="none" xmlns="http://www.w3.org/2000/svg">
<path fill-rule="evenodd" clip-rule="evenodd" d="M14.6685 5.18315C14.0447 4.55531 13.3026 4.05748 12.4851 3.71851C11.6676 3.37953 10.791 3.20615 9.90596 3.2084C6.19496 3.2084 3.17396 6.22865 3.17246 9.94115C3.17246 11.1276 3.48221 12.2856 4.07096 13.3071L3.11621 16.7954L6.68546 15.8586C7.67276 16.3961 8.77886 16.6779 9.90296 16.6784H9.90596C13.6162 16.6784 16.6372 13.6581 16.6387 9.94565C16.6413 9.06101 16.4684 8.18464 16.1303 7.36719C15.7921 6.54974 15.2952 5.80742 14.6685 5.18315ZM9.90596 15.5421H9.90371C8.90135 15.5422 7.91744 15.2726 7.05521 14.7614L6.85121 14.6399L4.73321 15.1956L5.29796 13.1309L5.16521 12.9194C4.6048 12.0272 4.30814 10.9947 4.30946 9.94115C4.31096 6.85565 6.82121 4.3454 9.90821 4.3454C10.6434 4.34376 11.3716 4.48796 12.0507 4.76963C12.7298 5.05131 13.3463 5.46488 13.8645 5.9864C14.3854 6.50543 14.7984 7.12257 15.0794 7.80214C15.3604 8.48172 15.5039 9.21026 15.5017 9.94565C15.5002 13.0311 12.99 15.5421 9.90596 15.5421ZM12.9757 11.3504C12.807 11.2656 11.9805 10.8591 11.826 10.8029C11.6722 10.7466 11.5605 10.7189 11.448 10.8869C11.3355 11.0549 11.013 11.4336 10.9147 11.5461C10.8165 11.6586 10.7182 11.6721 10.5502 11.5881C10.3822 11.5041 9.83996 11.3264 9.19721 10.7534C8.69696 10.3071 8.35946 9.75665 8.26121 9.5879C8.16296 9.41915 8.25071 9.3284 8.33546 9.2444C8.41121 9.1694 8.50346 9.0479 8.58746 8.94965C8.67146 8.8514 8.69921 8.78165 8.75546 8.66915C8.81171 8.55665 8.78396 8.4584 8.74121 8.3744C8.69921 8.28965 8.36246 7.46165 8.22221 7.1249C8.08646 6.79865 7.94771 6.84215 7.84421 6.83765C7.73702 6.83326 7.62974 6.83126 7.52246 6.83165C7.43715 6.83382 7.35321 6.85359 7.27591 6.88973C7.1986 6.92587 7.12959 6.97759 7.07321 7.04165C6.91871 7.2104 6.48446 7.6169 6.48446 8.4449C6.48446 9.2729 7.08746 10.0731 7.17146 10.1856C7.25546 10.2981 8.35796 11.9969 10.0455 12.7259C10.4475 12.8991 10.761 13.0026 11.0047 13.0806C11.4075 13.2089 11.7742 13.1901 12.0645 13.1474C12.3877 13.0994 13.0597 12.7409 13.2 12.3479C13.3402 11.9549 13.3402 11.6181 13.2982 11.5476C13.2562 11.4771 13.143 11.4344 12.9757 11.3504Z" fill="currentColor"/>
</svg>
